<?xml version="1.0" encoding="UTF-8"?>
<svg id="Layer_14" data-name="Layer 14" xmlns="http://www.w3.org/2000/svg" viewBox="0 0 2386.3 219.89">
  <defs>
    <style>
      .cls-1 {
        fill: #0f1626;
      }
    </style>
  </defs>
  <path class="cls-1" d="m95.24,3.06c15.31,0,28.48,2.14,39.51,6.43,11.02,4.29,19.49,10.41,25.42,18.37,5.92,7.96,8.88,17.56,8.88,28.79,0,11.84-3.32,22.05-9.95,30.63-6.64,8.57-15.77,14.19-27.41,16.84,14.09,2.66,25.21,8.78,33.38,18.37,8.16,9.6,12.25,21.54,12.25,35.83,0,12.25-3.27,22.82-9.8,31.7-6.54,8.88-15.67,15.67-27.41,20.37-11.74,4.7-25.78,7.04-42.11,7.04H0V3.06h95.24Zm-2.14,88.2c10.61,0,18.93-2.45,24.96-7.35,6.02-4.9,9.03-11.74,9.03-20.52s-3.01-14.9-9.03-19.6c-6.02-4.69-14.35-6.94-24.96-6.74h-52.06v54.21h52.06Zm0,92.18c13.06.2,23.27-2.35,30.62-7.66,7.35-5.31,11.03-12.76,11.03-22.36,0-8.98-3.68-16.08-11.03-21.28-7.35-5.21-17.56-7.81-30.62-7.81h-52.06v59.11h52.06Z"/>
  <path class="cls-1" d="m306.56,3.06c27.76,0,49.2,6.43,64.31,19.29,15.11,12.86,22.66,30.93,22.66,54.2s-7.55,43.18-22.66,56.66c-15.11,13.47-36.55,20.21-64.31,20.21h-48.39v64.01h-41.04V3.06h89.43Zm0,116.38c15.31,0,27.15-3.47,35.52-10.41,8.37-6.94,12.56-17.46,12.56-31.55s-4.19-23.53-12.56-30.16c-8.37-6.63-20.21-9.95-35.52-9.95h-48.39v82.08h48.39Zm-1.53,18.37h40.12l52.68,79.63h-46.55l-46.24-79.63Z"/>
  <path class="cls-1" d="m438.55,3.06h41.04v214.38h-41.04V3.06Z"/>
  <path class="cls-1" d="m599.95,3.06h41.96l92.79,214.38h-43.79l-71.36-173.03-71.05,173.03h-42.88L599.95,3.06Zm-45.02,134.14h127.71v33.38h-127.71v-33.38Z"/>
  <path class="cls-1" d="m761.04,3.06h38.89l121.28,164.76-10.72,3.68V3.06h39.81v214.38h-39.2l-120.66-164.46,10.72-3.67v168.13h-40.12V3.06Z"/>
  <path class="cls-1" d="m1048.91,3.06h46.86l71.05,140.57L1237.25,3.06h46.86v214.38h-37.67V60.33l-66.76,135.06h-26.34l-67.07-135.06v157.11h-37.36V3.06Z"/>
  <path class="cls-1" d="m1404.46,3.06h41.96l92.79,214.38h-43.79l-71.36-173.03-71.05,173.03h-42.88L1404.46,3.06Zm-45.02,134.14h127.71v33.38h-127.71v-33.38Z"/>
  <path class="cls-1" d="m1654.67,3.06c16.33,0,31.29,2.6,44.87,7.81,13.58,5.21,25.31,12.61,35.22,22.2,9.9,9.6,17.61,20.93,23.12,33.99,5.51,13.07,8.27,27.46,8.27,43.18s-2.76,29.81-8.27,42.87c-5.51,13.07-13.27,24.4-23.27,34-10.01,9.6-21.95,17.05-35.83,22.36-13.89,5.31-28.99,7.96-45.33,7.96h-87.89V3.06h89.12Zm.92,180.08c9.8,0,18.88-1.79,27.26-5.36,8.37-3.57,15.67-8.57,21.89-15.01,6.23-6.43,11.13-14.09,14.7-22.97,3.57-8.88,5.36-18.63,5.36-29.25s-1.84-20.67-5.51-29.55c-3.67-8.88-8.68-16.64-15.01-23.27-6.33-6.63-13.78-11.69-22.36-15.16-8.58-3.47-17.97-5.21-28.18-5.21h-47.16v145.78h49Z"/>
  <path class="cls-1" d="m1937.04,56.04c-7.56-4.69-15.27-8.57-23.12-11.64-7.86-3.06-15.26-5.25-22.2-6.58-6.94-1.33-13.27-1.99-18.99-1.99-9.6,0-17.3,1.84-23.12,5.51-5.82,3.67-8.73,9.09-8.73,16.23,0,6.54,2.09,11.84,6.28,15.92,4.18,4.09,9.7,7.46,16.54,10.11,6.84,2.65,14.34,5.21,22.51,7.66,8.17,2.45,16.33,5.16,24.5,8.11,8.17,2.96,15.67,6.79,22.51,11.49,6.84,4.7,12.3,10.72,16.39,18.07,4.08,7.35,6.12,16.54,6.12,27.56,0,13.27-3.57,24.61-10.72,34-7.15,9.39-16.9,16.64-29.25,21.74-12.36,5.11-26.39,7.66-42.11,7.66-11.44,0-22.61-1.48-33.54-4.44-10.92-2.96-21.24-6.99-30.93-12.09-9.7-5.1-18.43-11.02-26.19-17.76l17.15-33.38c7.35,6.74,15.31,12.51,23.89,17.3,8.57,4.8,17.2,8.47,25.88,11.02,8.68,2.56,16.79,3.83,24.35,3.83,11.64,0,20.67-2.25,27.1-6.74,6.43-4.49,9.65-10.82,9.65-18.99,0-6.74-2.1-12.14-6.28-16.23-4.19-4.08-9.65-7.5-16.39-10.26-6.74-2.76-14.24-5.21-22.51-7.35-8.27-2.14-16.49-4.69-24.65-7.66-8.17-2.96-15.67-6.74-22.51-11.33-6.84-4.59-12.36-10.46-16.54-17.61-4.19-7.15-6.28-16.23-6.28-27.26,0-12.45,3.37-23.22,10.11-32.31,6.74-9.08,16.08-16.12,28.02-21.13,11.94-5,25.98-7.5,42.11-7.5,14.29,0,28.22,2.04,41.8,6.12,13.57,4.08,25.47,9.49,35.68,16.23l-16.54,33.69Z"/>
  <path class="cls-1" d="m1994.61,3.06h157.11v34.3h-116.07v55.43h104.13v33.99h-104.13v56.35h119.74v34.3h-160.78V3.06Z"/>
  <path class="cls-1" d="m2197.04,3.06h38.9l121.28,164.76-10.72,3.68V3.06h39.81v214.38h-39.2l-120.66-164.46,10.72-3.67v168.13h-40.12V3.06Z"/>
</svg>